<mxfile host="app.diagrams.net" modified="2024-06-13T06:45:56.313Z" agent="Mozilla/5.0 (Windows NT 10.0; Win64; x64) AppleWebKit/537.36 (KHTML, like Gecko) Chrome/125.0.0.0 Safari/537.36 Edg/125.0.0.0" etag="M6D3fDj0HOJKV7frDFK5" version="24.5.4" type="github">
  <diagram name="Page-1" id="4sDTlQZCq37CPkAuL8qr">
    <mxGraphModel dx="2066" dy="3497" grid="1" gridSize="10" guides="1" tooltips="1" connect="1" arrows="1" fold="1" page="1" pageScale="1" pageWidth="827" pageHeight="1169" math="0" shadow="0">
      <root>
        <mxCell id="0" />
        <mxCell id="1" parent="0" />
        <mxCell id="wE6E-Kb5jEtww24tF81K-1" value="&lt;font style=&quot;font-size: 33px;&quot;&gt;CHR 99999&lt;/font&gt;" style="rounded=1;whiteSpace=wrap;html=1;align=center;" vertex="1" parent="1">
          <mxGeometry x="79" y="-2270" width="671" height="60" as="geometry" />
        </mxCell>
        <mxCell id="wE6E-Kb5jEtww24tF81K-2" value="&lt;font style=&quot;font-size: 14px;&quot;&gt;slagtekylling stald 1&lt;/font&gt;" style="rounded=1;whiteSpace=wrap;html=1;fontSize=33;align=center;" vertex="1" parent="1">
          <mxGeometry x="79" y="-2150" width="170" height="33" as="geometry" />
        </mxCell>
        <mxCell id="wE6E-Kb5jEtww24tF81K-3" value="&lt;font style=&quot;font-size: 14px;&quot;&gt;slagtekylling stald 1&lt;/font&gt;" style="rounded=1;whiteSpace=wrap;html=1;fontSize=33;fillColor=#dae8fc;strokeColor=#6c8ebf;align=center;" vertex="1" parent="1">
          <mxGeometry x="79" y="-2150" width="170" height="33" as="geometry" />
        </mxCell>
        <mxCell id="wE6E-Kb5jEtww24tF81K-4" value="&lt;font style=&quot;font-size: 14px;&quot;&gt;slagtekylling stald 1&lt;/font&gt;" style="rounded=1;whiteSpace=wrap;html=1;fontSize=33;fillColor=#dae8fc;strokeColor=#6c8ebf;align=center;" vertex="1" parent="1">
          <mxGeometry x="79" y="-2150" width="170" height="33" as="geometry" />
        </mxCell>
        <mxCell id="wE6E-Kb5jEtww24tF81K-5" value="&lt;font style=&quot;font-size: 14px;&quot;&gt;hønsestald 1&lt;/font&gt;" style="rounded=1;whiteSpace=wrap;html=1;fontSize=33;fillColor=#1ba1e2;strokeColor=#006EAF;fontColor=#ffffff;align=center;" vertex="1" parent="1">
          <mxGeometry x="79" y="-2150" width="170" height="33" as="geometry" />
        </mxCell>
        <mxCell id="wE6E-Kb5jEtww24tF81K-55" style="edgeStyle=orthogonalEdgeStyle;rounded=0;orthogonalLoop=1;jettySize=auto;html=1;exitX=1;exitY=0.5;exitDx=0;exitDy=0;entryX=0;entryY=0.5;entryDx=0;entryDy=0;" edge="1" parent="1" source="wE6E-Kb5jEtww24tF81K-7" target="wE6E-Kb5jEtww24tF81K-22">
          <mxGeometry relative="1" as="geometry" />
        </mxCell>
        <mxCell id="wE6E-Kb5jEtww24tF81K-7" value="&lt;font style=&quot;font-size: 14px;&quot;&gt;el&lt;/font&gt;" style="rounded=1;whiteSpace=wrap;html=1;fontSize=33;fillColor=#dae8fc;strokeColor=#6c8ebf;align=center;" vertex="1" parent="1">
          <mxGeometry x="79" y="-1935" width="170" height="33" as="geometry" />
        </mxCell>
        <mxCell id="wE6E-Kb5jEtww24tF81K-8" style="edgeStyle=orthogonalEdgeStyle;rounded=0;orthogonalLoop=1;jettySize=auto;html=1;exitX=1;exitY=0.5;exitDx=0;exitDy=0;entryX=0;entryY=0.5;entryDx=0;entryDy=0;" edge="1" parent="1" source="wE6E-Kb5jEtww24tF81K-9" target="wE6E-Kb5jEtww24tF81K-22">
          <mxGeometry relative="1" as="geometry" />
        </mxCell>
        <mxCell id="wE6E-Kb5jEtww24tF81K-9" value="&lt;font style=&quot;font-size: 14px;&quot;&gt;energi til varme&amp;nbsp;&lt;/font&gt;" style="rounded=1;whiteSpace=wrap;html=1;fontSize=33;fillColor=#dae8fc;strokeColor=#6c8ebf;align=center;" vertex="1" parent="1">
          <mxGeometry x="79" y="-1902" width="170" height="33" as="geometry" />
        </mxCell>
        <mxCell id="wE6E-Kb5jEtww24tF81K-10" value="&lt;font style=&quot;font-size: 14px;&quot;&gt;stald&amp;nbsp;&lt;/font&gt;" style="rounded=1;whiteSpace=wrap;html=1;fontSize=33;align=center;" vertex="1" parent="1">
          <mxGeometry x="79" y="-2100" width="170" height="33" as="geometry" />
        </mxCell>
        <mxCell id="wE6E-Kb5jEtww24tF81K-11" value="&lt;font style=&quot;font-size: 14px;&quot;&gt;lager&lt;/font&gt;&lt;span style=&quot;color: rgba(0, 0, 0, 0); font-family: monospace; font-size: 0px;&quot;&gt;%3CmxGraphModel%3E%3Croot%3E%3CmxCell%20id%3D%220%22%2F%3E%3CmxCell%20id%3D%221%22%20parent%3D%220%22%2F%3E%3CmxCell%20id%3D%222%22%20value%3D%22%26lt%3Bfont%20style%3D%26quot%3Bfont-size%3A%2014px%3B%26quot%3B%26gt%3Bslagtekylling%20stald%201%26lt%3B%2Ffont%26gt%3B%22%20style%3D%22rounded%3D1%3BwhiteSpace%3Dwrap%3Bhtml%3D1%3BfontSize%3D33%3B%22%20vertex%3D%221%22%20parent%3D%221%22%3E%3CmxGeometry%20x%3D%2270%22%20y%3D%22-1730%22%20width%3D%22170%22%20height%3D%2233%22%20as%3D%22geometry%22%2F%3E%3C%2FmxCell%3E%3C%2Froot%3E%3C%2FmxGraphModel%3E&lt;/span&gt;" style="rounded=1;whiteSpace=wrap;html=1;fontSize=33;align=center;" vertex="1" parent="1">
          <mxGeometry x="79" y="-2067" width="170" height="33" as="geometry" />
        </mxCell>
        <mxCell id="wE6E-Kb5jEtww24tF81K-12" style="edgeStyle=orthogonalEdgeStyle;rounded=0;orthogonalLoop=1;jettySize=auto;html=1;exitX=1;exitY=0.5;exitDx=0;exitDy=0;entryX=0;entryY=0.5;entryDx=0;entryDy=0;" edge="1" parent="1" source="wE6E-Kb5jEtww24tF81K-13" target="wE6E-Kb5jEtww24tF81K-22">
          <mxGeometry relative="1" as="geometry" />
        </mxCell>
        <mxCell id="wE6E-Kb5jEtww24tF81K-13" value="&lt;font style=&quot;font-size: 14px;&quot;&gt;fordøjelse&lt;/font&gt;" style="rounded=1;whiteSpace=wrap;html=1;fontSize=33;fillColor=#dae8fc;strokeColor=#6c8ebf;align=center;" vertex="1" parent="1">
          <mxGeometry x="79" y="-2034" width="170" height="33" as="geometry" />
        </mxCell>
        <mxCell id="wE6E-Kb5jEtww24tF81K-14" style="edgeStyle=orthogonalEdgeStyle;rounded=0;orthogonalLoop=1;jettySize=auto;html=1;exitX=1;exitY=0.5;exitDx=0;exitDy=0;entryX=0;entryY=0.5;entryDx=0;entryDy=0;" edge="1" parent="1" source="wE6E-Kb5jEtww24tF81K-15" target="wE6E-Kb5jEtww24tF81K-22">
          <mxGeometry relative="1" as="geometry" />
        </mxCell>
        <mxCell id="wE6E-Kb5jEtww24tF81K-15" value="&lt;font style=&quot;font-size: 14px;&quot;&gt;foder m/u dLUC&lt;/font&gt;" style="rounded=1;whiteSpace=wrap;html=1;fontSize=33;fillColor=#dae8fc;strokeColor=#6c8ebf;align=center;" vertex="1" parent="1">
          <mxGeometry x="79" y="-2001" width="170" height="33" as="geometry" />
        </mxCell>
        <mxCell id="wE6E-Kb5jEtww24tF81K-16" style="edgeStyle=orthogonalEdgeStyle;rounded=0;orthogonalLoop=1;jettySize=auto;html=1;exitX=1;exitY=0.5;exitDx=0;exitDy=0;" edge="1" parent="1" source="wE6E-Kb5jEtww24tF81K-17" target="wE6E-Kb5jEtww24tF81K-22">
          <mxGeometry relative="1" as="geometry" />
        </mxCell>
        <mxCell id="wE6E-Kb5jEtww24tF81K-17" value="&lt;span style=&quot;font-size: 14px;&quot;&gt;indkøbte/indsatte hønniker&lt;/span&gt;" style="rounded=1;whiteSpace=wrap;html=1;fontSize=33;fillColor=#dae8fc;strokeColor=#6c8ebf;align=center;" vertex="1" parent="1">
          <mxGeometry x="79" y="-1968" width="170" height="33" as="geometry" />
        </mxCell>
        <mxCell id="wE6E-Kb5jEtww24tF81K-18" style="edgeStyle=orthogonalEdgeStyle;rounded=0;orthogonalLoop=1;jettySize=auto;html=1;entryX=0;entryY=0.5;entryDx=0;entryDy=0;" edge="1" parent="1" source="wE6E-Kb5jEtww24tF81K-19" target="wE6E-Kb5jEtww24tF81K-22">
          <mxGeometry relative="1" as="geometry" />
        </mxCell>
        <mxCell id="wE6E-Kb5jEtww24tF81K-19" value="&lt;font style=&quot;font-size: 14px;&quot;&gt;stald&lt;/font&gt;" style="rounded=1;whiteSpace=wrap;html=1;fontSize=33;fillColor=#dae8fc;strokeColor=#6c8ebf;align=center;" vertex="1" parent="1">
          <mxGeometry x="79" y="-2100" width="170" height="33" as="geometry" />
        </mxCell>
        <mxCell id="wE6E-Kb5jEtww24tF81K-20" style="edgeStyle=orthogonalEdgeStyle;rounded=0;orthogonalLoop=1;jettySize=auto;html=1;exitX=1;exitY=0.5;exitDx=0;exitDy=0;entryX=0;entryY=0.5;entryDx=0;entryDy=0;" edge="1" parent="1" source="wE6E-Kb5jEtww24tF81K-21" target="wE6E-Kb5jEtww24tF81K-22">
          <mxGeometry relative="1" as="geometry" />
        </mxCell>
        <mxCell id="wE6E-Kb5jEtww24tF81K-21" value="&lt;font style=&quot;font-size: 14px;&quot;&gt;lager&lt;/font&gt;&lt;span style=&quot;color: rgba(0, 0, 0, 0); font-family: monospace; font-size: 0px;&quot;&gt;%3CmxGraphModel%3E%3Croot%3E%3CmxCell%20id%3D%220%22%2F%3E%3CmxCell%20id%3D%221%22%20parent%3D%220%22%2F%3E%3CmxCell%20id%3D%222%22%20value%3D%22%26lt%3Bfont%20style%3D%26quot%3Bfont-size%3A%2014px%3B%26quot%3B%26gt%3Bslagtekylling%20stald%201%26lt%3B%2Ffont%26gt%3B%22%20style%3D%22rounded%3D1%3BwhiteSpace%3Dwrap%3Bhtml%3D1%3BfontSize%3D33%3B%22%20vertex%3D%221%22%20parent%3D%221%22%3E%3CmxGeometry%20x%3D%2270%22%20y%3D%22-1730%22%20width%3D%22170%22%20height%3D%2233%22%20as%3D%22geometry%22%2F%3E%3C%2FmxCell%3E%3C%2Froot%3E%3C%2FmxGraphModel%3E&lt;/span&gt;" style="rounded=1;whiteSpace=wrap;html=1;fontSize=33;fillColor=#dae8fc;strokeColor=#6c8ebf;align=center;" vertex="1" parent="1">
          <mxGeometry x="79" y="-2067" width="170" height="33" as="geometry" />
        </mxCell>
        <mxCell id="wE6E-Kb5jEtww24tF81K-57" value="" style="edgeStyle=orthogonalEdgeStyle;rounded=0;orthogonalLoop=1;jettySize=auto;html=1;" edge="1" parent="1" source="wE6E-Kb5jEtww24tF81K-22" target="wE6E-Kb5jEtww24tF81K-56">
          <mxGeometry relative="1" as="geometry" />
        </mxCell>
        <mxCell id="wE6E-Kb5jEtww24tF81K-22" value="&lt;p style=&quot;line-height: 30%;&quot;&gt;&lt;span style=&quot;font-size: 14px;&quot;&gt;høns til slagtning&lt;/span&gt;&lt;br&gt;&lt;/p&gt;" style="rounded=1;whiteSpace=wrap;html=1;fontSize=33;fillColor=#bac8d3;strokeColor=#23445d;arcSize=9;align=center;" vertex="1" parent="1">
          <mxGeometry x="369" y="-1990" width="150" height="40" as="geometry" />
        </mxCell>
        <mxCell id="wE6E-Kb5jEtww24tF81K-23" style="edgeStyle=orthogonalEdgeStyle;rounded=0;orthogonalLoop=1;jettySize=auto;html=1;entryX=0;entryY=0.5;entryDx=0;entryDy=0;" edge="1" parent="1" source="wE6E-Kb5jEtww24tF81K-24" target="wE6E-Kb5jEtww24tF81K-22">
          <mxGeometry relative="1" as="geometry" />
        </mxCell>
        <mxCell id="wE6E-Kb5jEtww24tF81K-24" value="&lt;font style=&quot;font-size: 14px;&quot;&gt;strøelse&lt;/font&gt;" style="rounded=1;whiteSpace=wrap;html=1;fontSize=33;fillColor=#dae8fc;strokeColor=#6c8ebf;align=center;" vertex="1" parent="1">
          <mxGeometry x="79" y="-1869" width="170" height="33" as="geometry" />
        </mxCell>
        <mxCell id="wE6E-Kb5jEtww24tF81K-53" style="edgeStyle=orthogonalEdgeStyle;rounded=0;orthogonalLoop=1;jettySize=auto;html=1;exitX=0.5;exitY=1;exitDx=0;exitDy=0;" edge="1" parent="1" source="wE6E-Kb5jEtww24tF81K-22" target="wE6E-Kb5jEtww24tF81K-22">
          <mxGeometry relative="1" as="geometry" />
        </mxCell>
        <mxCell id="wE6E-Kb5jEtww24tF81K-56" value="&lt;p style=&quot;line-height: 30%;&quot;&gt;&lt;span style=&quot;font-size: 14px;&quot;&gt;CO2 aftryk m/u dLUC pr. kg æg for hønsestald 1&lt;/span&gt;&lt;br&gt;&lt;/p&gt;" style="rounded=1;whiteSpace=wrap;html=1;fontSize=33;fillColor=#bac8d3;strokeColor=#23445d;arcSize=9;align=left;" vertex="1" parent="1">
          <mxGeometry x="569" y="-2022" width="180" height="104" as="geometry" />
        </mxCell>
      </root>
    </mxGraphModel>
  </diagram>
</mxfile>
